<?xml version="1.0" encoding="utf-8"?>
<!-- Generator: Adobe Illustrator 22.0.0, SVG Export Plug-In . SVG Version: 6.00 Build 0)  -->
<svg version="1.1" id="Capa_1" xmlns="http://www.w3.org/2000/svg" xmlns:xlink="http://www.w3.org/1999/xlink" x="0px" y="0px"
	 viewBox="0 0 18 18" style="enable-background:new 0 0 18 18;" xml:space="preserve">
<style type="text/css">
	.st0{fill:none;}
	.st1{fill:#FFFFFF;}
</style>
<path class="st0" d="M0,0h18v18H0V0z"/>
<path class="st1" d="M11.7,9.8c0.6,0,1.1-0.3,1.3-0.8l2.7-4.9C15.9,3.6,15.6,3,15,3H3.9L3.2,1.5H0.8V3h1.5l2.7,5.7l-1,1.8
	c-0.5,1,0.2,2.2,1.3,2.2h9v-1.5h-9l0.8-1.5H11.7z M4.6,4.5h9.1l-2.1,3.8H6.4L4.6,4.5z M5.3,13.5c-0.8,0-1.5,0.7-1.5,1.5
	s0.7,1.5,1.5,1.5s1.5-0.7,1.5-1.5S6.1,13.5,5.3,13.5z M12.8,13.5c-0.8,0-1.5,0.7-1.5,1.5s0.7,1.5,1.5,1.5c0.8,0,1.5-0.7,1.5-1.5
	S13.6,13.5,12.8,13.5z"/>
</svg>
