<svg id="Capa_1" enable-background="new 0 0 512 512" height="512" viewBox="0 0 512 512" width="512" xmlns="http://www.w3.org/2000/svg"><g><path d="m190.451 159.47h131.047c1.661 0 3.2-1.326 3.2-3.2v-26.217c0-1.77-1.44-3.21-3.2-3.21h-131.047c-1.76 0-3.2 1.44-3.2 3.21v26.217c0 1.7 1.23 2.79 2.36 3.09.27.07.55.11.84.11z"/><path d="m326.997 247.731-12.779-58.264h-116.488l-12.779 58.264z"/><path d="m163.093 347.361c-5.839 26.632 14.443 51.795 41.666 51.795h102.42c27.318 0 47.496-25.238 41.676-51.805l-15.278-69.623h-155.205z"/><path d="m133.796 340.931 34.986-159.504c-7.139-6.159-11.529-15.248-11.529-25.157v-26.217c0-18.308 14.889-33.207 33.197-33.207h131.047c18.308 0 33.197 14.899 33.197 33.207v6.019l71.373-71.373c-46.906-41.815-106.74-64.673-170.093-64.673-68.373 0-132.656 26.627-181.002 74.972-48.345 48.345-74.972 112.629-74.972 181.002 0 63.354 22.858 123.187 64.673 170.093l67.453-67.453c-.169-5.88.381-11.819 1.67-17.709z"/><path d="m447.274 85.907-102.57 102.57 33.447 152.445c9.946 45.345-24.574 88.231-70.973 88.231h-102.42c-27.124 0-50.881-14.77-63.464-37.266l-55.414 55.414c46.905 41.816 106.739 64.673 170.093 64.673 68.373 0 132.656-26.627 181.002-74.972 96.867-96.867 99.54-250.992 10.299-351.095z"/></g></svg>